{"title":"The Devil-Ship Pirates(1964)MPEG-4[DaScubaDude]","uid":13944089,"size":870229791,"categoryP":"video","categoryS":"movies","magnet":"?xt=urn:btih:98b7e754178f6026ff902bad300ea01bcb249fc0&amp;dn=The+Devil-Ship+Pirates%281964%29MPEG-4%5BDaScubaDude%5D&amp;tr=udp%3A%2F%2Ftracker.leechers-paradise.org%3A6969&amp;tr=udp%3A%2F%2Fzer0day.ch%3A1337&amp;tr=udp%3A%2F%2Fopen.demonii.com%3A1337&amp;tr=udp%3A%2F%2Ftracker.coppersurfer.tk%3A6969&amp;tr=udp%3A%2F%2Fexodus.desync.com%3A6969","seeders":0,"leechers":3,"uploader":"dascuba","files":1,"time":1458493751,"description":"The Devil-Ship Pirates (1964)\r\n1h 26min | Action, Adventure, Thriller | May 1964 (USA)\r\nA damaged privateer deserts the Spanish Armada and makes land for repairs near a village on the British coast, terrorizing the local inhabitants.\r\nDirector: Don Sharp\r\nWriter: Jimmy Sangster (screenplay)\r\nStars: Christopher Lee, Andrew Keir, John Cairney \r\n\r\nGeneral\r\nComplete name                            : The Devil-Ship PiratesICONS_OF_ADVENTURE_Title14.mp4\r\nFormat                                   : MPEG-4\r\nFormat profile                           : Base Media\r\nCodec ID                                 : isom\r\nFile size                                : 830 MiB\r\nDuration                                 : 1h 26mn\r\nOverall bit rate                         : 1 347 Kbps\r\nMovie name                               : ICONS_OF_ADVENTURE\r\nWriting application                      : Lavf54.6.100\r\n\r\nVideo\r\nID                                       : 1\r\nFormat                                   : AVC\r\nFormat/Info                              : Advanced Video Codec\r\nFormat profile                           :   \r\nFormat settings, CABAC                   : No\r\nFormat settings, ReFrames                : 6 frames\r\nCodec ID                                 : avc1\r\nCodec ID/Info                            : Advanced Video Coding\r\nDuration                                 : 1h 26mn\r\nBit rate                                 : 1 206 Kbps\r\nWidth                                    : 720 pixels\r\nHeight                                   : 404 pixels\r\nDisplay aspect ratio                     : 16:9\r\nFrame rate mode                          : Constant\r\nFrame rate                               : 29.970 fps\r\nColor space                              : YUV\r\nChroma subsampling                       : 4:2:0\r\nBit depth                                : 8 bits\r\nScan type                                : Progressive\r\nBits/(Pixel*Frame)                       : 0.138\r\nStream size                              : 743 MiB (90%)\r\n\r\nAudio\r\nID                                       : 2\r\nFormat                                   : AAC\r\nFormat/Info                              : Advanced Audio Codec\r\nFormat profile                           : LC\r\nCodec ID                                 : 40\r\nDuration                                 : 1h 26mn\r\nBit rate mode                            : Constant\r\nBit rate                                 : 132 Kbps\r\nChannel(s)                               : 2 channels\r\nChannel positions                        : Front: L R\r\nSampling rate                            : 44.1 KHz\r\nCompression mode                         : Lossy\r\nStream size                              : 82.8 MiB (10%)","torrent":{"xt":"urn:btih:98b7e754178f6026ff902bad300ea01bcb249fc0","amp;dn":"The+Devil-Ship+Pirates%281964%29MPEG-4%5BDaScubaDude%5D","amp;tr":["udp%3A%2F%2Ftracker.leechers-paradise.org%3A6969","udp%3A%2F%2Fzer0day.ch%3A1337","udp%3A%2F%2Fopen.demonii.com%3A1337","udp%3A%2F%2Ftracker.coppersurfer.tk%3A6969","udp%3A%2F%2Fexodus.desync.com%3A6969"],"infoHash":"98b7e754178f6026ff902bad300ea01bcb249fc0","infoHashBuffer":{"type":"Buffer","data":[152,183,231,84,23,143,96,38,255,144,43,173,48,14,160,27,203,36,159,192]},"announce":[],"urlList":[]}}